# xmcd CD database file
#
# Track frame offsets:
#	150
#	26499
#	48743
#	76589
#	105393
#
# Disc length: 1754 seconds
#
# Revision: 4
# Processed by: cddbd v1.5.1PL0 Copyright (c) Steve Scherf et al.
# Submitted via: CDex 1.51
#
DISCID=2e06d805
DTITLE=平井堅 - why
DYEAR=1900
DGENRE=
TTITLE0=why
TTITLE1=wonderful world
TTITLE2=why (CASSETTE VISION remix)
TTITLE3=wonderful world (KREVA remix feat. KREVA from KICK THE CAN CREW)
TTITLE4=why (less vocal)
EXTD=
EXTT0=
EXTT1=
EXTT2=
EXTT3=
EXTT4=
PLAYORDER=
